<svg width="57" height="56" viewBox="0 0 57 56" fill="none" xmlns="http://www.w3.org/2000/svg">
<circle cx="28.5" cy="28" r="27.5" fill="#D6E7FB" stroke="#F3F3F4"/>
<mask id="mask0_231_44640" style="mask-type:alpha" maskUnits="userSpaceOnUse" x="18" y="21" width="17" height="16">
<path fill-rule="evenodd" clip-rule="evenodd" d="M18.5002 21.0005H34.0005V36.5018H18.5002V21.0005Z" fill="white"/>
</mask>
<g mask="url(#mask0_231_44640)">
<path fill-rule="evenodd" clip-rule="evenodd" d="M23.3474 22.5018C22.9084 22.5018 22.6254 22.5018 22.5764 22.5038C21.8384 22.5348 21.1574 22.8478 20.6664 23.3838C20.2084 23.8848 19.9724 24.5248 20.0034 25.1888C20.0034 28.0818 20.0044 32.4238 20.0114 32.6618C20.1254 34.0468 21.4234 35.1058 22.9094 34.9918C25.6594 34.9958 29.7334 35.0048 29.9244 34.9978C30.6594 34.9678 31.3414 34.6558 31.8324 34.1208C32.2914 33.6218 32.5274 32.9818 32.4984 32.3208C32.4974 32.3098 32.4974 32.2988 32.4974 32.2878C32.4984 29.4278 32.4984 25.0888 32.4914 24.8558C32.3784 23.4638 31.0744 22.3918 29.5804 22.5088C27.5144 22.5058 24.6954 22.5018 23.3474 22.5018ZM22.6464 36.5018C20.5324 36.5028 18.6884 34.8828 18.5144 32.7578C18.5114 32.7168 18.5014 32.5918 18.5044 25.2228C18.4564 24.1918 18.8304 23.1678 19.5604 22.3708C20.3224 21.5388 21.3734 21.0538 22.5204 21.0048C22.6594 20.9948 27.4674 21.0068 29.5264 21.0108C31.7764 20.8528 33.8074 22.5228 33.9884 24.7638C33.9964 24.8728 33.9994 27.3978 33.9974 32.2728C34.0394 33.3288 33.6634 34.3458 32.9374 35.1358C32.1744 35.9668 31.1224 36.4498 29.9764 36.4968C29.8364 36.5068 25.0264 36.4938 22.9644 36.4898C22.8584 36.4978 22.7524 36.5018 22.6464 36.5018Z" fill="#3488ED"/>
</g>
<path fill-rule="evenodd" clip-rule="evenodd" d="M37.3186 34.3493C36.8676 34.3493 36.4226 34.1943 36.0556 33.8933L32.7746 31.1973C32.4546 30.9343 32.4086 30.4613 32.6716 30.1413C32.9336 29.8223 33.4066 29.7743 33.7266 30.0383L37.0066 32.7343C37.2276 32.9143 37.4496 32.8403 37.5356 32.7983C37.6216 32.7583 37.8206 32.6333 37.8206 32.3493L37.8326 25.0003C37.8336 24.7163 37.6336 24.5913 37.5476 24.5503C37.4626 24.5103 37.2376 24.4353 37.0186 24.6153L33.7256 27.3103C33.4036 27.5733 32.9326 27.5263 32.6706 27.2043C32.4076 26.8843 32.4556 26.4123 32.7756 26.1503L36.0686 23.4543C36.6726 22.9593 37.4856 22.8623 38.1906 23.1953C38.8956 23.5303 39.3336 24.2223 39.3326 25.0023L39.3206 32.3513C39.3196 33.1313 38.8806 33.8233 38.1766 34.1553C37.9006 34.2863 37.6086 34.3493 37.3186 34.3493Z" fill="#3488ED"/>
</svg>
