<svg width="57" height="56" viewBox="0 0 57 56" fill="none" xmlns="http://www.w3.org/2000/svg">
<circle cx="28.5" cy="28" r="27.5" fill="#D6E7FB" stroke="#F3F3F4"/>
<path fill-rule="evenodd" clip-rule="evenodd" d="M28.25 38.5008C27.836 38.5008 27.5 38.1648 27.5 37.7508V34.5898C27.5 34.1758 27.836 33.8398 28.25 33.8398C28.664 33.8398 29 34.1758 29 34.5898V37.7508C29 38.1648 28.664 38.5008 28.25 38.5008Z" fill="#3488ED"/>
<path fill-rule="evenodd" clip-rule="evenodd" d="M28.25 18.5C26.424 18.5 24.938 19.994 24.938 21.831V26.519C24.938 28.354 26.424 29.849 28.25 29.849C30.076 29.849 31.561 28.354 31.561 26.519V21.831C31.561 19.994 30.076 18.5 28.25 18.5ZM28.25 31.349C25.597 31.349 23.438 29.182 23.438 26.519V21.831C23.438 19.167 25.597 17 28.25 17C30.903 17 33.061 19.167 33.061 21.831V26.519C33.061 29.182 30.903 31.349 28.25 31.349Z" fill="#3488ED"/>
<path fill-rule="evenodd" clip-rule="evenodd" d="M28.25 35.3388C23.425 35.3388 19.5 31.3968 19.5 26.5508C19.5 26.1368 19.836 25.8008 20.25 25.8008C20.664 25.8008 21 26.1368 21 26.5508C21 30.5688 24.252 33.8388 28.25 33.8388C32.248 33.8388 35.5 30.5688 35.5 26.5508C35.5 26.1368 35.836 25.8008 36.25 25.8008C36.664 25.8008 37 26.1368 37 26.5508C37 31.3968 33.075 35.3388 28.25 35.3388Z" fill="#3488ED"/>
<path fill-rule="evenodd" clip-rule="evenodd" d="M32.3086 23.2559H30.3186C29.9046 23.2559 29.5686 22.9199 29.5686 22.5059C29.5686 22.0919 29.9046 21.7559 30.3186 21.7559H32.3086C32.7226 21.7559 33.0586 22.0919 33.0586 22.5059C33.0586 22.9199 32.7226 23.2559 32.3086 23.2559Z" fill="#3488ED"/>
<path fill-rule="evenodd" clip-rule="evenodd" d="M32.3106 26.5938H29.3206C28.9066 26.5938 28.5706 26.2578 28.5706 25.8438C28.5706 25.4297 28.9066 25.0938 29.3206 25.0938H32.3106C32.7246 25.0938 33.0606 25.4297 33.0606 25.8438C33.0606 26.2578 32.7246 26.5938 32.3106 26.5938Z" fill="#3488ED"/>
</svg>
