<svg width="40" height="40" viewBox="0 0 40 40" fill="none" xmlns="http://www.w3.org/2000/svg">
<circle cx="20" cy="20" r="19.5" fill="#FDF5D8" stroke="#F3F3F4"/>
<g clip-path="url(#clip0_4234_2372)">
<path d="M26.3758 22.7054C26.0639 22.2529 26.238 21.5988 26.1604 20.8767C26.0805 19.6985 25.5733 18.557 24.5894 17.644L21.2382 14.5341C21.2382 14.5341 20.578 13.9208 19.963 14.5803C19.349 15.2393 20.0097 15.8525 20.0097 15.8525L21.4254 17.1669L22.6526 18.3057C22.6526 18.3057 22.3451 18.6354 20.9869 17.3748L16.3996 13.1163C16.3996 13.1163 15.7384 12.5034 15.1239 13.1628C14.5099 13.8218 15.1702 14.4351 15.1702 14.4351L19.5079 18.4621C19.4985 18.4531 19.1798 18.7721 19.1739 18.7667L14.5328 14.4584C14.5328 14.4584 13.8721 13.8451 13.2576 14.5046C12.6431 15.164 13.3038 15.7768 13.3038 15.7768L17.9454 20.086C17.9508 20.0914 17.6519 20.4283 17.6609 20.4368L13.6571 16.7194C13.6571 16.7194 12.9964 16.1061 12.3819 16.7655C11.7674 17.425 12.4281 18.0383 12.4281 18.0383L16.685 21.9895C16.7241 22.0258 16.4606 22.3963 16.5095 22.4415L13.4421 19.5941C13.4421 19.5941 12.7814 18.9808 12.1669 19.6407C11.5524 20.3001 12.2131 20.9134 12.2131 20.9134L17.2165 25.5559C18.0518 26.3313 18.9096 26.7238 19.9437 26.8676C20.1542 26.8967 20.4236 26.8967 20.534 26.9106C20.8827 26.9545 21.1888 27.0781 21.5987 27.329C22.1261 27.6516 22.9174 27.786 23.3721 27.3008L24.9224 25.6455L26.3538 24.117C26.8081 23.6322 26.7268 23.2138 26.3758 22.7054Z" fill="#EF9645"/>
<path d="M12.7689 27.6795C12.6797 27.6797 12.5924 27.6534 12.5182 27.6039C12.444 27.5543 12.3861 27.4839 12.352 27.4014C12.3178 27.3189 12.309 27.2282 12.3265 27.1406C12.344 27.0531 12.3871 26.9728 12.4503 26.9098L14.0505 25.3094C14.0923 25.2676 14.142 25.2344 14.1967 25.2117C14.2513 25.1891 14.3099 25.1774 14.3691 25.1774C14.4282 25.1774 14.4868 25.1891 14.5415 25.2117C14.5962 25.2344 14.6458 25.2676 14.6877 25.3094C14.7295 25.3513 14.7627 25.401 14.7853 25.4557C14.808 25.5104 14.8196 25.569 14.8196 25.6282C14.8196 25.6875 14.808 25.7461 14.7853 25.8008C14.7627 25.8555 14.7295 25.9052 14.6877 25.9471L13.0875 27.5478C13.0457 27.5897 12.996 27.6229 12.9413 27.6455C12.8866 27.6681 12.828 27.6797 12.7689 27.6795ZM15.8088 28.0953C15.7368 28.0954 15.6659 28.0782 15.6019 28.0452C15.5379 28.0122 15.4828 27.9643 15.4411 27.9055C15.3994 27.8468 15.3724 27.7789 15.3624 27.7075C15.3524 27.6362 15.3596 27.5635 15.3834 27.4955L15.821 26.2451C15.8392 26.1876 15.8687 26.1343 15.9079 26.0883C15.9471 26.0424 15.995 26.0049 16.049 25.9778C16.1029 25.9508 16.1617 25.9349 16.2219 25.9311C16.2821 25.9272 16.3425 25.9355 16.3994 25.9555C16.4564 25.9754 16.5087 26.0065 16.5534 26.0471C16.5981 26.0877 16.6342 26.1368 16.6595 26.1915C16.6849 26.2463 16.699 26.3056 16.701 26.3659C16.7031 26.4263 16.693 26.4864 16.6713 26.5427L16.2338 27.7931C16.203 27.8814 16.1455 27.9578 16.0694 28.0119C15.9933 28.066 15.9022 28.0952 15.8088 28.0953ZM12.3539 24.638C12.2479 24.6374 12.1455 24.5995 12.0646 24.5309C11.9838 24.4623 11.9297 24.3674 11.9118 24.2629C11.8939 24.1584 11.9133 24.0508 11.9667 23.9592C12.0201 23.8676 12.1041 23.7977 12.2038 23.7619L13.3281 23.3646C13.3839 23.3449 13.4431 23.3364 13.5022 23.3395C13.5613 23.3427 13.6192 23.3574 13.6726 23.383C13.7259 23.4085 13.7738 23.4443 13.8134 23.4884C13.8529 23.5324 13.8834 23.5838 13.9031 23.6397C13.9228 23.6955 13.9314 23.7547 13.9282 23.8138C13.9251 23.873 13.9103 23.9309 13.8848 23.9843C13.8592 24.0378 13.8235 24.0856 13.7794 24.1252C13.7354 24.1648 13.684 24.1953 13.6282 24.215L12.5039 24.6123C12.4557 24.6293 12.405 24.638 12.3539 24.638ZM25.6294 14.8227C25.5402 14.8228 25.453 14.7964 25.3788 14.7468C25.3046 14.6972 25.2468 14.6267 25.2127 14.5443C25.1786 14.4618 25.1697 14.371 25.1872 14.2835C25.2046 14.196 25.2477 14.1156 25.3108 14.0526L26.9115 12.4518C26.996 12.3672 27.1107 12.3197 27.2302 12.3198C27.3498 12.3198 27.4644 12.3674 27.5489 12.452C27.6334 12.5366 27.6808 12.6513 27.6808 12.771C27.6807 12.8906 27.6332 13.0053 27.5487 13.0898L25.948 14.6906C25.9063 14.7326 25.8566 14.7659 25.8019 14.7886C25.7473 14.8113 25.6886 14.8229 25.6294 14.8227ZM23.753 14.0575C23.681 14.0575 23.61 14.0403 23.546 14.0072C23.4821 13.9742 23.4269 13.9262 23.3853 13.8674C23.3436 13.8087 23.3166 13.7408 23.3066 13.6694C23.2966 13.598 23.3038 13.5253 23.3276 13.4573L23.7647 12.2069C23.8042 12.094 23.8868 12.0014 23.9945 11.9495C24.1021 11.8976 24.226 11.8906 24.3388 11.93C24.4516 11.9695 24.5442 12.0522 24.5961 12.1599C24.6479 12.2677 24.6549 12.3916 24.6155 12.5045L24.1784 13.7549C24.1476 13.8433 24.0901 13.9199 24.0139 13.9741C23.9377 14.0283 23.8465 14.0575 23.753 14.0575ZM26.5212 16.6612C26.4152 16.6606 26.3128 16.6226 26.232 16.5541C26.1511 16.4855 26.097 16.3906 26.0791 16.286C26.0612 16.1815 26.0807 16.074 26.1341 15.9824C26.1875 15.8907 26.2714 15.8209 26.3712 15.785L27.495 15.3877C27.6077 15.3479 27.7316 15.3545 27.8395 15.4061C27.9473 15.4577 28.0302 15.55 28.07 15.6628C28.1098 15.7756 28.1032 15.8996 28.0517 16.0075C28.0001 16.1154 27.9079 16.1984 27.7951 16.2382L26.6713 16.6354C26.6231 16.6525 26.5723 16.6612 26.5212 16.6612Z" fill="#FA743E"/>
<path d="M27.8274 22.7537C27.5284 22.2836 27.7261 21.6244 27.6727 20.8877C27.632 19.6877 27.1601 18.5101 26.2001 17.5484L22.9303 14.2733C22.9303 14.2733 22.2861 13.6277 21.6441 14.2769C21.0031 14.9257 21.6477 15.5717 21.6477 15.5717L23.0293 16.9561L24.2264 18.1552C24.2264 18.1552 23.9052 18.4796 22.5801 17.152C21.2542 15.824 18.1042 12.6669 18.1042 12.6669C18.1042 12.6669 17.4595 12.0214 16.818 12.6706C16.1765 13.3193 16.8212 13.9649 16.8212 13.9649L21.0538 18.2062C21.0447 18.1971 20.7127 18.5101 20.7068 18.5042L16.1783 13.9667C16.1783 13.9667 15.5337 13.3207 14.8922 13.9699C14.2512 14.6191 14.8954 15.2646 14.8954 15.2646L19.4242 19.803C19.4297 19.8085 19.1166 20.1406 19.1257 20.1497L15.2193 16.235C15.2193 16.235 14.5746 15.5894 13.9331 16.2386C13.2916 16.8878 13.9363 17.5338 13.9363 17.5338L18.0897 21.6954C18.1277 21.7332 17.8499 22.1013 17.8974 22.1492L14.9044 19.1502C14.9044 19.1502 14.2598 18.5046 13.6183 19.1538C12.9768 19.803 13.6214 20.449 13.6214 20.449L18.5027 25.3382C19.3179 26.155 20.1684 26.5828 21.2053 26.7646C21.4166 26.8015 21.688 26.8106 21.7984 26.8283C22.1481 26.8848 22.4521 27.021 22.857 27.2903C23.3772 27.6361 24.1698 27.7996 24.6444 27.3222L26.2626 25.6931L27.7564 24.1888C28.2309 23.7104 28.1635 23.2822 27.8274 22.7537Z" fill="#FFDB5E"/>
</g>
<defs>
<clipPath id="clip0_4234_2372">
<rect width="17.1429" height="17.1429" fill="white" transform="translate(11.4287 11.4285)"/>
</clipPath>
</defs>
</svg>
