<svg width="40" height="40" viewBox="0 0 40 40" fill="none" xmlns="http://www.w3.org/2000/svg">
<circle cx="20" cy="20" r="19.5" fill="#FDF5D8" stroke="#F3F3F4"/>
<g clip-path="url(#clip0_4234_2334)">
<path d="M20.5356 22.7589L22.6249 23.1607L24.3392 14.3482C24.4464 13.7589 24.0714 13.1696 23.5089 13.0625C22.9196 12.9553 22.3571 13.3571 22.2499 13.9464L20.5356 22.7589Z" fill="#FFDB5E"/>
<path d="M23.5357 13.0624C23.4554 13.0356 23.4018 13.0356 23.3214 13.0356C23.8036 13.2231 24.0714 13.7321 23.9643 14.2678L22.25 23.0803L22.625 23.1606L24.3393 14.3481C24.4732 13.7321 24.0982 13.1696 23.5357 13.0624Z" fill="#EF9645"/>
<path d="M18.3931 23.0266H20.9109V13.3034C20.9109 12.5802 20.3484 11.9641 19.652 11.9641C18.9824 11.9641 18.3931 12.5534 18.3931 13.3034V23.0266Z" fill="#FFDB5E"/>
<path d="M19.6787 11.9641C19.6251 11.9641 19.5448 11.9641 19.4912 11.9909C20.1073 12.098 20.5626 12.6338 20.5626 13.3034V23.0534H20.9376V13.3034C20.9376 12.5534 20.3751 11.9641 19.6787 11.9641Z" fill="#EF9645"/>
<path d="M17.0531 22.9998L19.196 22.4373L16.8656 13.5712C16.7049 12.9552 16.0889 12.5802 15.4996 12.7141C14.9103 12.8748 14.5621 13.4909 14.7228 14.1069L17.0531 22.9998Z" fill="#FFDB5E"/>
<path d="M15.5001 12.7141L15.3394 12.7944C15.8751 12.7677 16.3572 13.1159 16.5179 13.6784L18.8483 22.5444L19.2233 22.4373L16.8661 13.5712C16.7054 12.9552 16.0894 12.5802 15.5001 12.7141Z" fill="#EF9645"/>
<path d="M12.5006 15.018C11.9917 15.2591 11.831 15.902 12.0988 16.4377L15.6345 23.4823L17.4292 22.5716L13.8935 15.527C13.6256 14.9913 13.0095 14.777 12.5006 15.018Z" fill="#FFDB5E"/>
<path d="M12.5001 15.018C12.4465 15.0448 12.3929 15.0716 12.3394 15.1252C12.7947 14.9913 13.3036 15.2323 13.5447 15.7145L17.0804 22.7591L17.4286 22.5984L13.8929 15.527C13.6251 14.9913 13.009 14.777 12.5001 15.018Z" fill="#EF9645"/>
<path d="M27.9554 19.2766C27.5269 18.4463 26.1876 18.4998 24.8215 19.9998C23.8572 21.0445 23.6697 21.3927 22.7054 21.3659V20.2677C22.7054 20.2677 20.6429 18.7409 16.5447 19.4373C16.5447 19.4373 14.2144 19.7588 14.2144 20.9909C14.2144 20.9909 13.8126 23.9641 14.6429 25.8391C15.8751 28.6248 22.1965 29.3481 24.1787 24.607C24.5804 23.6695 25.384 22.9731 26.1072 22.0891C26.9376 21.0177 28.4108 20.1606 27.9554 19.2766Z" fill="#FFDB5E"/>
<path d="M27.9557 19.2766C27.8754 19.1159 27.7682 19.0088 27.6343 18.9016C27.6611 18.9284 27.6879 18.9552 27.6879 19.0088C28.1432 19.9195 26.67 20.7498 25.7861 21.8213C25.0629 22.7052 24.2593 23.4016 23.8575 24.3391C22.1432 28.4373 17.1611 28.4373 15.0718 26.5623C16.9736 28.7052 22.3307 28.9195 24.1254 24.607C24.5271 23.6695 25.3307 22.973 26.0539 22.0891C26.9379 21.0177 28.4111 20.1605 27.9557 19.2766Z" fill="#EF9645"/>
<path d="M22.9739 21.3657C21.2329 20.7229 18.1257 21.9014 18.5543 25.0354C18.5543 22.1157 21.2061 21.3925 22.6525 21.3925C22.8668 21.3657 22.9739 21.3657 22.9739 21.3657Z" fill="#EF9645"/>
</g>
<defs>
<clipPath id="clip0_4234_2334">
<rect width="17.1429" height="17.1429" fill="white" transform="translate(11.4287 11.4285)"/>
</clipPath>
</defs>
</svg>
