<svg width="40" height="40" viewBox="0 0 40 40" fill="none" xmlns="http://www.w3.org/2000/svg">
<circle cx="20" cy="20" r="19.5" fill="#F9D8D8" stroke="#F3F3F4"/>
<g clip-path="url(#clip0_4234_2627)">
<path d="M24.0161 12.6296C21.0817 12.6296 20.0036 15.6283 20.0036 15.6283C20.0036 15.6283 18.9402 12.6296 15.9858 12.6296C13.7652 12.6296 11.234 14.3895 12.1688 18.3899C13.1036 22.3904 20.0117 27.3738 20.0117 27.3738C20.0117 27.3738 26.8942 22.3904 27.8304 18.3899C28.7652 14.3895 26.4161 12.6296 24.0161 12.6296Z" fill="#F44336"/>
<path d="M15.5338 12.9283C17.8374 12.9283 18.9811 15.4046 19.3508 16.4078C19.403 16.5511 19.6026 16.5551 19.6628 16.4158L20.0003 15.627C19.5249 14.1082 18.2177 12.6296 15.9865 12.6296C15.0624 12.6296 14.086 12.935 13.3267 13.5792C13.9976 13.1386 14.7838 12.9283 15.5338 12.9283Z" fill="#CC3333"/>
<path d="M24.0167 12.6296C23.3082 12.6296 22.6627 12.7837 22.1591 13.0944C22.5127 12.9578 22.9506 12.9283 23.3845 12.9283C25.5555 12.9283 27.4988 14.5743 26.6216 18.3792C25.8689 21.6457 21.4707 25.6087 20.1274 27.1207C20.0417 27.2171 20.0122 27.3725 20.0122 27.3725C20.0122 27.3725 26.8948 22.389 27.831 18.3886C28.7658 14.3895 26.4207 12.6296 24.0167 12.6296Z" fill="#CC3333"/>
<path d="M13.7105 14.7528C14.2127 14.126 15.11 13.6077 15.8707 14.205C16.2819 14.5278 16.1024 15.1894 15.7341 15.468C15.1984 15.8751 14.7323 16.1202 14.4056 16.7577C14.21 17.1408 14.0922 17.56 14.0319 17.9872C14.0078 18.1559 13.7868 18.1975 13.7038 18.0488C13.1386 17.047 12.9779 15.6675 13.7105 14.7528Z" fill="#FF8A80"/>
<path d="M21.7628 16.0703C21.5271 16.0703 21.361 15.8426 21.4467 15.623C21.6061 15.2185 21.8123 14.8274 22.0601 14.4792C22.4271 13.9649 23.1248 13.6649 23.5668 13.977C24.0195 14.2957 23.9605 14.9332 23.6431 15.2413C22.9614 15.9016 22.1016 16.0703 21.7628 16.0703Z" fill="#FF8A80"/>
</g>
<defs>
<clipPath id="clip0_4234_2627">
<rect width="17.1429" height="17.1429" fill="white" transform="translate(11.4287 11.4285)"/>
</clipPath>
</defs>
</svg>
