<svg width="56" height="56" viewBox="0 0 56 56" fill="none" xmlns="http://www.w3.org/2000/svg">
<circle cx="28" cy="28" r="27.5" fill="#D6E7FB" stroke="#F3F3F4"/>
<path fill-rule="evenodd" clip-rule="evenodd" d="M27.7495 38.5008C27.3355 38.5008 26.9995 38.1648 26.9995 37.7508V34.5898C26.9995 34.1758 27.3355 33.8398 27.7495 33.8398C28.1635 33.8398 28.4995 34.1758 28.4995 34.5898V37.7508C28.4995 38.1648 28.1635 38.5008 27.7495 38.5008Z" fill="#3488ED"/>
<path fill-rule="evenodd" clip-rule="evenodd" d="M27.7495 18.5C25.9235 18.5 24.4375 19.994 24.4375 21.831V26.519C24.4375 28.354 25.9235 29.849 27.7495 29.849C29.5755 29.849 31.0605 28.354 31.0605 26.519V21.831C31.0605 19.994 29.5755 18.5 27.7495 18.5ZM27.7495 31.349C25.0965 31.349 22.9375 29.182 22.9375 26.519V21.831C22.9375 19.167 25.0965 17 27.7495 17C30.4025 17 32.5605 19.167 32.5605 21.831V26.519C32.5605 29.182 30.4025 31.349 27.7495 31.349Z" fill="#3488ED"/>
<path fill-rule="evenodd" clip-rule="evenodd" d="M27.7495 35.3388C22.9245 35.3388 18.9995 31.3968 18.9995 26.5508C18.9995 26.1368 19.3355 25.8008 19.7495 25.8008C20.1635 25.8008 20.4995 26.1368 20.4995 26.5508C20.4995 30.5688 23.7515 33.8388 27.7495 33.8388C31.7475 33.8388 34.9995 30.5688 34.9995 26.5508C34.9995 26.1368 35.3355 25.8008 35.7495 25.8008C36.1635 25.8008 36.4995 26.1368 36.4995 26.5508C36.4995 31.3968 32.5745 35.3388 27.7495 35.3388Z" fill="#3488ED"/>
<path fill-rule="evenodd" clip-rule="evenodd" d="M31.8079 23.2559H29.8179C29.4039 23.2559 29.0679 22.9199 29.0679 22.5059C29.0679 22.0919 29.4039 21.7559 29.8179 21.7559H31.8079C32.2219 21.7559 32.5579 22.0919 32.5579 22.5059C32.5579 22.9199 32.2219 23.2559 31.8079 23.2559Z" fill="#3488ED"/>
<path fill-rule="evenodd" clip-rule="evenodd" d="M31.8098 26.5938H28.8198C28.4058 26.5938 28.0698 26.2578 28.0698 25.8438C28.0698 25.4297 28.4058 25.0938 28.8198 25.0938H31.8098C32.2238 25.0938 32.5598 25.4297 32.5598 25.8438C32.5598 26.2578 32.2238 26.5938 31.8098 26.5938Z" fill="#3488ED"/>
</svg>
