<svg width="40" height="40" viewBox="0 0 40 40" fill="none" xmlns="http://www.w3.org/2000/svg">
<circle cx="20" cy="20" r="19.5" fill="#FBEAD5" stroke="#F3F3F4"/>
<mask id="mask0_4234_14952" style="mask-type:alpha" maskUnits="userSpaceOnUse" x="12" y="13" width="16" height="14">
<path fill-rule="evenodd" clip-rule="evenodd" d="M12.8574 13.5713H27.1529V26.5609H12.8574V13.5713Z" fill="white"/>
</mask>
<g mask="url(#mask0_4234_14952)">
<path fill-rule="evenodd" clip-rule="evenodd" d="M20.0096 14.6427C19.6696 14.6427 19.3667 14.8184 19.1967 15.1134L14.0553 24.0884C13.8881 24.3813 13.8896 24.7306 14.0589 25.0227C14.2281 25.3149 14.531 25.4899 14.8689 25.4899H25.1424C25.4796 25.4899 25.7824 25.3149 25.9517 25.0227C26.1217 24.7306 26.1231 24.3813 25.9546 24.0884L20.8224 15.1134C20.6531 14.8184 20.3503 14.6427 20.0096 14.6427ZM25.1424 26.5613H14.8689C14.1446 26.5613 13.4953 26.187 13.1317 25.5599C12.7681 24.9334 12.766 24.1841 13.1253 23.5563L18.2681 14.5806C18.6296 13.9484 19.2803 13.5713 20.0096 13.5713H20.0103C20.7389 13.5713 21.391 13.9491 21.7524 14.582L26.8853 23.5563C27.2446 24.1841 27.2424 24.9334 26.8789 25.5599C26.5153 26.187 25.866 26.5613 25.1424 26.5613Z" fill="#ED942B"/>
</g>
<path fill-rule="evenodd" clip-rule="evenodd" d="M20.003 21.5455C19.7073 21.5455 19.4673 21.3055 19.4673 21.0098V18.7955C19.4673 18.4998 19.7073 18.2598 20.003 18.2598C20.2987 18.2598 20.5387 18.4998 20.5387 18.7955V21.0098C20.5387 21.3055 20.2987 21.5455 20.003 21.5455Z" fill="#ED942B"/>
<path fill-rule="evenodd" clip-rule="evenodd" d="M20.0045 23.9278C19.6095 23.9278 19.2866 23.6086 19.2866 23.2136C19.2866 22.8186 19.603 22.4993 19.9973 22.4993H20.0045C20.3995 22.4993 20.7188 22.8186 20.7188 23.2136C20.7188 23.6086 20.3995 23.9278 20.0045 23.9278Z" fill="#ED942B"/>
</svg>
