<svg width="104" height="56" viewBox="0 0 104 56" fill="none" xmlns="http://www.w3.org/2000/svg">
<rect x="0.5" y="0.5" width="103" height="55" rx="11.5" fill="#3488ED" stroke="#85B8F4"/>
<path fill-rule="evenodd" clip-rule="evenodd" d="M42 21.5H30C28.3431 21.5 27 22.8431 27 24.5V30.5C27 32.1569 28.3431 33.5 30 33.5H42C43.6569 33.5 45 32.1569 45 30.5V24.5C45 22.8431 43.6569 21.5 42 21.5ZM43.5303 22.9697C43.6022 23.0416 43.6565 23.1245 43.6931 23.2129C43.7298 23.3013 43.75 23.3983 43.75 23.5V28C43.75 28.4142 43.4142 28.75 43 28.75C42.5858 28.75 42.25 28.4142 42.25 28V25.3107L38.5303 29.0303C38.2374 29.3232 37.7626 29.3232 37.4697 29.0303C37.1768 28.7374 37.1768 28.2626 37.4697 27.9697L41.1893 24.25H38.5C38.0858 24.25 37.75 23.9142 37.75 23.5C37.75 23.0858 38.0858 22.75 38.5 22.75H42.9998H43C43.012 22.75 43.024 22.7503 43.036 22.7509C43.2158 22.7594 43.393 22.8324 43.5303 22.9697ZM32 35.75C31.5858 35.75 31.25 36.0858 31.25 36.5C31.25 36.9142 31.5858 37.25 32 37.25H40C40.4142 37.25 40.75 36.9142 40.75 36.5C40.75 36.0858 40.4142 35.75 40 35.75H32Z" fill="white"/>
<path d="M66.8277 25.1639C67.0225 24.9652 67.3273 24.9472 67.5421 25.1097L67.6037 25.1639L72.0003 29.6489L76.397 25.1639C76.5918 24.9652 76.8966 24.9472 77.1114 25.1097L77.1729 25.1639C77.3677 25.3626 77.3855 25.6736 77.2261 25.8927L77.1729 25.9555L72.3883 30.8361C72.1935 31.0348 71.8887 31.0528 71.6739 30.8903L71.6123 30.8361L66.8277 25.9555C66.6134 25.7369 66.6134 25.3825 66.8277 25.1639Z" fill="white"/>
</svg>
