<svg width="104" height="56" viewBox="0 0 104 56" fill="none" xmlns="http://www.w3.org/2000/svg">
<rect x="0.5" y="0.5" width="103" height="55" rx="11.5" fill="white" stroke="#F3F3F4"/>
<path fill-rule="evenodd" clip-rule="evenodd" d="M26.25 24.5C26.25 22.4289 27.9289 20.75 30 20.75H37.5C37.9142 20.75 38.25 21.0858 38.25 21.5C38.25 21.9142 37.9142 22.25 37.5 22.25H30C28.7574 22.25 27.75 23.2574 27.75 24.5V30.5C27.75 31.7426 28.7574 32.75 30 32.75H42C43.2426 32.75 44.25 31.7426 44.25 30.5V28.5C44.25 28.0858 44.5858 27.75 45 27.75C45.4142 27.75 45.75 28.0858 45.75 28.5V30.5C45.75 32.5711 44.0711 34.25 42 34.25H30C27.9289 34.25 26.25 32.5711 26.25 30.5V24.5ZM40.25 21.5C40.25 21.0858 40.5858 20.75 41 20.75H45C45.4142 20.75 45.75 21.0858 45.75 21.5V25.5C45.75 25.9142 45.4142 26.25 45 26.25C44.5858 26.25 44.25 25.9142 44.25 25.5V23.3107L40.5303 27.0303C40.2374 27.3232 39.7626 27.3232 39.4697 27.0303C39.1768 26.7374 39.1768 26.2626 39.4697 25.9697L43.1893 22.25H41C40.5858 22.25 40.25 21.9142 40.25 21.5ZM31.25 36.5C31.25 36.0858 31.5858 35.75 32 35.75H40C40.4142 35.75 40.75 36.0858 40.75 36.5C40.75 36.9142 40.4142 37.25 40 37.25H32C31.5858 37.25 31.25 36.9142 31.25 36.5Z" fill="#474953"/>
<path d="M77.1725 30.8361C76.9777 31.0348 76.6728 31.0528 76.458 30.8903L76.3965 30.8361L71.9998 26.3511L67.6032 30.8361C67.4084 31.0348 67.1036 31.0528 66.8888 30.8903L66.8272 30.8361C66.6324 30.6374 66.6147 30.3264 66.7741 30.1073L66.8272 30.0445L71.6118 25.1639C71.8066 24.9652 72.1115 24.9472 72.3263 25.1097L72.3878 25.1639L77.1725 30.0445C77.3867 30.2631 77.3867 30.6175 77.1725 30.8361Z" fill="#474953"/>
</svg>
