<svg xmlns="http://www.w3.org/2000/svg" width="44" height="44" viewBox="0 0 44 44" fill="none">
<rect width="44" height="44" rx="10" fill="#E5F3FF"/>
<path d="M22.53 30.4181H16.21C13.05 30.4181 12 28.3181 12 26.2081V17.7881C12 14.6281 13.05 13.5781 16.21 13.5781H22.53C25.69 13.5781 26.74 14.6281 26.74 17.7881V26.2081C26.74 29.3681 25.68 30.4181 22.53 30.4181Z" stroke="#3E8FFF" stroke-width="1.5" stroke-linecap="round" stroke-linejoin="round"/>
<path d="M29.5183 27.1001L26.7383 25.1501V18.8401L29.5183 16.8901C30.8783 15.9401 31.9983 16.5201 31.9983 18.1901V25.8101C31.9983 27.4801 30.8783 28.0601 29.5183 27.1001Z" stroke="#3E8FFF" stroke-width="1.5" stroke-linecap="round" stroke-linejoin="round"/>
<path d="M21.5 21C22.3284 21 23 20.3284 23 19.5C23 18.6716 22.3284 18 21.5 18C20.6716 18 20 18.6716 20 19.5C20 20.3284 20.6716 21 21.5 21Z" stroke="#3E8FFF" stroke-width="1.5" stroke-linecap="round" stroke-linejoin="round"/>
</svg>