<svg xmlns="http://www.w3.org/2000/svg" width="44" height="44" viewBox="0 0 44 44" fill="none">
<rect width="44" height="44" rx="10" fill="#FF6A77"/>
<path d="M26.63 17.5781C26.63 17.5781 26.66 16.6281 26.63 16.3181C26.46 14.2781 25.13 13.5781 22.52 13.5781H16.21C13.05 13.5781 12 14.6281 12 17.7881V26.2081C12 27.4681 12.38 28.7381 13.37 29.5481L14 29.9981" stroke="white" stroke-width="1.5" stroke-linecap="round" stroke-linejoin="round"/>
<path d="M26.7417 20.9492V26.2092C26.7417 29.3692 25.6917 30.4192 22.5317 30.4192H17.2617" stroke="white" stroke-width="1.5" stroke-linecap="round" stroke-linejoin="round"/>
<path d="M31.9983 16.7383V25.8083C31.9983 27.4783 30.8783 28.0583 29.5183 27.0983L26.7383 25.1483" stroke="white" stroke-width="1.5" stroke-linecap="round" stroke-linejoin="round"/>
<path d="M32.0195 12.1914L12.0195 32.1914" stroke="white" stroke-width="1.5" stroke-linecap="round" stroke-linejoin="round"/>
</svg>