<svg width="24" height="24" viewBox="0 0 24 24" fill="none" xmlns="http://www.w3.org/2000/svg">
<circle cx="12" cy="12" r="5" fill="white"/>
<path fill-rule="evenodd" clip-rule="evenodd" d="M12 22C17.5228 22 22 17.5228 22 12C22 6.47715 17.5228 2 12 2C6.47715 2 2 6.47715 2 12C2 17.5228 6.47715 22 12 22ZM15.285 15.2847C15.625 14.9458 15.625 14.3958 15.285 14.0557L13.505 12.2758L15.285 10.4948C15.625 10.1558 15.625 9.59575 15.285 9.25575C14.945 8.91475 14.395 8.91475 14.045 9.25575L12.275 11.0347L10.495 9.25575C10.145 8.91475 9.595 8.91475 9.255 9.25575C8.915 9.59575 8.915 10.1558 9.255 10.4948L11.035 12.2758L9.255 14.0457C8.915 14.3958 8.915 14.9458 9.255 15.2847C9.425 15.4548 9.655 15.5457 9.875 15.5457C10.105 15.5457 10.325 15.4548 10.495 15.2847L12.275 13.5157L14.055 15.2847C14.225 15.4657 14.445 15.5457 14.665 15.5457C14.895 15.5457 15.115 15.4548 15.285 15.2847Z" fill="#191B28"/>
</svg>
