<svg width="16" height="16" viewBox="0 0 16 16" fill="none" xmlns="http://www.w3.org/2000/svg">
<path fill-rule="evenodd" clip-rule="evenodd" d="M7.99984 0.666992C3.94984 0.666992 0.666504 3.95033 0.666504 8.00033C0.666504 12.0503 3.94984 15.3337 7.99984 15.3337C12.0498 15.3337 15.3332 12.0503 15.3332 8.00033C15.3332 3.95033 12.0498 0.666992 7.99984 0.666992ZM11.1785 6.76033C11.237 6.69342 11.2816 6.61548 11.3096 6.5311C11.3375 6.44672 11.3483 6.3576 11.3414 6.26898C11.3344 6.18036 11.3097 6.09403 11.2689 6.01508C11.228 5.93612 11.1718 5.86613 11.1035 5.80922C11.0352 5.75231 10.9563 5.70963 10.8712 5.6837C10.7862 5.65777 10.6969 5.6491 10.6084 5.65821C10.52 5.66732 10.4343 5.69402 10.3563 5.73675C10.2784 5.77947 10.2098 5.83735 10.1545 5.90699L7.28784 9.34632L5.8045 7.86233C5.67877 7.74089 5.51037 7.67369 5.33557 7.67521C5.16077 7.67673 4.99356 7.74684 4.86996 7.87045C4.74635 7.99405 4.67624 8.16126 4.67472 8.33606C4.6732 8.51086 4.7404 8.67926 4.86184 8.80499L6.86184 10.805C6.92734 10.8705 7.00577 10.9216 7.09211 10.955C7.17846 10.9885 7.27084 11.0036 7.36335 10.9994C7.45586 10.9952 7.54649 10.9718 7.62944 10.9306C7.7124 10.8895 7.78587 10.8315 7.84517 10.7603L11.1785 6.76033Z" fill="black"/>
</svg>
