<svg width="56" height="56" viewBox="0 0 56 56" fill="none" xmlns="http://www.w3.org/2000/svg">
<circle cx="28" cy="28" r="27.5" fill="white" stroke="#F3F3F4"/>
<path fill-rule="evenodd" clip-rule="evenodd" d="M31.7161 32.9727H24.4961C24.0821 32.9727 23.7461 32.6367 23.7461 32.2227C23.7461 31.8087 24.0821 31.4727 24.4961 31.4727H31.7161C32.1301 31.4727 32.4661 31.8087 32.4661 32.2227C32.4661 32.6367 32.1301 32.9727 31.7161 32.9727Z" fill="#474953"/>
<path fill-rule="evenodd" clip-rule="evenodd" d="M31.7161 28.7871H24.4961C24.0821 28.7871 23.7461 28.4511 23.7461 28.0371C23.7461 27.6231 24.0821 27.2871 24.4961 27.2871H31.7161C32.1301 27.2871 32.4661 27.6231 32.4661 28.0371C32.4661 28.4511 32.1301 28.7871 31.7161 28.7871Z" fill="#474953"/>
<path fill-rule="evenodd" clip-rule="evenodd" d="M27.2501 24.6094H24.4951C24.0811 24.6094 23.7451 24.2734 23.7451 23.8594C23.7451 23.4454 24.0811 23.1094 24.4951 23.1094H27.2501C27.6641 23.1094 28.0001 23.4454 28.0001 23.8594C28.0001 24.2734 27.6641 24.6094 27.2501 24.6094Z" fill="#474953"/>
<mask id="mask0" style="mask-type:alpha" maskUnits="userSpaceOnUse" x="19" y="18" width="19" height="20">
<path fill-rule="evenodd" clip-rule="evenodd" d="M19 18H37.1647V37.9098H19V18Z" fill="white"/>
</mask>
<g mask="url(#mask0)">
<path fill-rule="evenodd" clip-rule="evenodd" d="M31.909 19.5L24.22 19.504C21.892 19.518 20.5 20.958 20.5 23.357V32.553C20.5 34.968 21.905 36.41 24.256 36.41L31.945 36.407C34.273 36.393 35.665 34.951 35.665 32.553V23.357C35.665 20.942 34.261 19.5 31.909 19.5ZM24.257 37.91C21.113 37.91 19 35.757 19 32.553V23.357C19 20.124 21.047 18.023 24.215 18.004L31.908 18H31.909C35.053 18 37.165 20.153 37.165 23.357V32.553C37.165 35.785 35.118 37.887 31.95 37.907L24.257 37.91Z" fill="#474953"/>
</g>
</svg>
