<svg width="56" height="56" viewBox="0 0 56 56" fill="none" xmlns="http://www.w3.org/2000/svg">
<circle cx="28" cy="28" r="28" fill="#3488ED"/>
<path fill-rule="evenodd" clip-rule="evenodd" d="M23.81 18H32.191C35.28 18 37 19.78 37 22.83V33.16C37 36.26 35.28 38 32.191 38H23.81C20.77 38 19 36.26 19 33.16V22.83C19 19.78 20.77 18 23.81 18ZM24.08 22.66V22.65H27.069C27.5 22.65 27.85 23 27.85 23.429C27.85 23.87 27.5 24.22 27.069 24.22H24.08C23.649 24.22 23.3 23.87 23.3 23.44C23.3 23.01 23.649 22.66 24.08 22.66ZM24.08 28.74H31.92C32.35 28.74 32.7 28.39 32.7 27.96C32.7 27.53 32.35 27.179 31.92 27.179H24.08C23.649 27.179 23.3 27.53 23.3 27.96C23.3 28.39 23.649 28.74 24.08 28.74ZM24.08 33.31H31.92C32.319 33.27 32.62 32.929 32.62 32.53C32.62 32.12 32.319 31.78 31.92 31.74H24.08C23.78 31.71 23.49 31.85 23.33 32.11C23.17 32.36 23.17 32.69 23.33 32.95C23.49 33.2 23.78 33.35 24.08 33.31Z" fill="white"/>
</svg>
