<svg xmlns="http://www.w3.org/2000/svg" width="44" height="44" viewBox="0 0 44 44" fill="none">
<rect width="44" height="44" rx="10" fill="#E5F3FF"/>
<path d="M18.8113 15.7558C18.5871 15.3273 18.5372 14.8288 18.6719 14.3643C18.8066 13.8999 19.1156 13.5054 19.5343 13.2634C19.953 13.0214 20.449 12.9505 20.9187 13.0656C21.3885 13.1806 21.7956 13.4727 22.055 13.8808L24.8675 18.7465" stroke="#3E8FFF" stroke-linecap="round" stroke-linejoin="round"/>
<path d="M16.3191 18.9269L14.8191 16.3301C14.5949 15.9015 14.545 15.403 14.6797 14.9385C14.8145 14.4741 15.1234 14.0796 15.5421 13.8376C15.9608 13.5956 16.4568 13.5247 16.9266 13.6398C17.3963 13.7548 17.8034 14.0469 18.0628 14.4551L21.2503 19.9769" stroke="#3E8FFF" stroke-width="1.5" stroke-linecap="round" stroke-linejoin="round"/>
<path d="M24.4391 25.4985C24.1921 25.0727 24.0315 24.6024 23.9666 24.1144C23.9017 23.6265 23.9338 23.1305 24.0609 22.655C24.1881 22.1795 24.4079 21.7337 24.7076 21.3433C25.0074 20.9528 25.3813 20.6254 25.8079 20.3797L24.8704 18.7485C24.6217 18.3171 24.5546 17.8046 24.6839 17.3238C24.8131 16.8429 25.128 16.4331 25.5594 16.1844C25.9908 15.9358 26.5033 15.8687 26.9842 15.9979C27.465 16.1272 27.8748 16.4421 28.1235 16.8735L29.9985 20.1266C30.9931 21.8497 31.2624 23.8973 30.7472 25.819C30.2321 27.7406 28.9747 29.3789 27.2516 30.3735C25.5285 31.3681 23.4809 31.6374 21.5593 31.1223C19.6376 30.6071 17.9993 29.3497 17.0047 27.6266L13.0672 20.8016C12.9441 20.588 12.8643 20.3523 12.8323 20.1078C12.8003 19.8633 12.8168 19.615 12.8807 19.3769C13.01 18.896 13.3249 18.4862 13.7563 18.2376C14.1877 17.9889 14.7002 17.9218 15.181 18.0511C15.6619 18.1803 16.0717 18.4952 16.3204 18.9266L18.3829 22.4985" stroke="#3E8FFF" stroke-width="1.5" stroke-linecap="round" stroke-linejoin="round"/>
<path d="M17.6031 32.5C16.3292 31.6214 15.2688 30.468 14.5 29.125" stroke="#3E8FFF" stroke-width="1.5" stroke-linecap="round" stroke-linejoin="round"/>
<path d="M26.5 12.9063C27.3558 12.9039 28.1969 13.1283 28.9379 13.5564C29.6789 13.9845 30.2933 14.6012 30.7188 15.3438" stroke="#3E8FFF" stroke-width="1.5" stroke-linecap="round" stroke-linejoin="round"/>
</svg>