<svg xmlns="http://www.w3.org/2000/svg" width="44" height="44" viewBox="0 0 44 44" fill="none">
<rect width="44" height="44" rx="10" fill="#FF6A77"/>
<path d="M21.05 24.95L19.2 26.8C18.81 27.19 18.19 27.19 17.79 26.81C17.68 26.7 17.57 26.6 17.46 26.49C16.43 25.45 15.5 24.36 14.67 23.22C13.85 22.08 13.19 20.94 12.71 19.81C12.24 18.67 12 17.58 12 16.54C12 15.86 12.12 15.21 12.36 14.61C12.6 14 12.98 13.44 13.51 12.94C14.15 12.31 14.85 12 15.59 12C15.87 12 16.15 12.06 16.4 12.18C16.66 12.3 16.89 12.48 17.07 12.74L19.39 16.01C19.57 16.26 19.7 16.49 19.79 16.71C19.88 16.92 19.93 17.13 19.93 17.32C19.93 17.56 19.86 17.8 19.72 18.03C19.59 18.26 19.4 18.5 19.16 18.74L18.4 19.53C18.29 19.64 18.24 19.77 18.24 19.93C18.24 20.01 18.25 20.08 18.27 20.16C18.3 20.24 18.33 20.3 18.35 20.36C18.53 20.69 18.84 21.12 19.28 21.64C19.73 22.16 20.21 22.69 20.73 23.22C20.83 23.32 20.94 23.42 21.04 23.52C21.44 23.91 21.45 24.55 21.05 24.95Z" fill="white"/>
<path d="M31.9716 28.3291C31.9716 28.6091 31.9216 28.8991 31.8216 29.1791C31.7916 29.2591 31.7616 29.3391 31.7216 29.4191C31.5516 29.7791 31.3316 30.1191 31.0416 30.4391C30.5516 30.9791 30.0116 31.3691 29.4016 31.6191C29.3916 31.6191 29.3816 31.6291 29.3716 31.6291C28.7816 31.8691 28.1416 31.9991 27.4516 31.9991C26.4316 31.9991 25.3416 31.7591 24.1916 31.2691C23.0416 30.7791 21.8916 30.1191 20.7516 29.2891C20.3616 28.9991 19.9716 28.7091 19.6016 28.3991L22.8716 25.1291C23.1516 25.3391 23.4016 25.4991 23.6116 25.6091C23.6616 25.6291 23.7216 25.6591 23.7916 25.6891C23.8716 25.7191 23.9516 25.7291 24.0416 25.7291C24.2116 25.7291 24.3416 25.6691 24.4516 25.5591L25.2116 24.8091C25.4616 24.5591 25.7016 24.3691 25.9316 24.2491C26.1616 24.1091 26.3916 24.0391 26.6416 24.0391C26.8316 24.0391 27.0316 24.0791 27.2516 24.1691C27.4716 24.2591 27.7016 24.3891 27.9516 24.5591L31.2616 26.9091C31.5216 27.0891 31.7016 27.2991 31.8116 27.5491C31.9116 27.7991 31.9716 28.0491 31.9716 28.3291Z" fill="white"/>
</svg>