<svg width="17" height="21" viewBox="0 0 17 21" fill="none" xmlns="http://www.w3.org/2000/svg">
<path d="M6.28886 5.31246H6.28886V5.31C6.28886 3.58346 7.69483 2.178 9.42186 2.178C11.1475 2.178 12.5529 3.58309 12.5529 5.31C12.5529 7.03604 11.1474 8.442 9.42186 8.442C9.41701 8.442 9.41216 8.44205 9.40732 8.44214C9.40345 8.44206 9.39957 8.44202 9.39568 8.44201C7.6777 8.43556 6.28322 7.03234 6.28886 5.31246ZM3.50097 19.2504C3.4783 19.2504 3.45564 19.2514 3.43307 19.2535C3.23903 19.2711 3.04315 19.2275 2.81184 19.0022C2.55163 18.7487 2.24308 18.2566 1.94832 17.3562C1.47584 15.9129 1.09521 13.6021 0.898059 10.0432C1.23913 10.7212 1.65538 11.3712 2.16797 11.9498C3.3809 13.3189 5.10176 14.2504 7.50097 14.2504H13.751C15.1317 14.2504 16.251 15.3697 16.251 16.7504C16.251 18.1311 15.1317 19.2504 13.751 19.2504H3.50097Z" fill="#3488ED" stroke="#3488ED" stroke-width="1.5" stroke-linecap="round" stroke-linejoin="round"/>
</svg>
