<svg width="104" height="56" viewBox="0 0 104 56" fill="none" xmlns="http://www.w3.org/2000/svg">
<rect x="0.5" y="0.5" width="103" height="55" rx="11.5" fill="white" stroke="#F3F3F4"/>
<path fill-rule="evenodd" clip-rule="evenodd" d="M30.25 19.5C27.5 19.5 27.5 19.708 27.5 22.25V22.275C27.5 23.382 27.5 24.182 27.771 24.52C28.036 24.848 28.823 25 30.25 25C31.677 25 32.464 24.847 32.729 24.519C33 24.182 33 23.382 33 22.274C33 19.708 33 19.5 30.25 19.5ZM30.25 26.5C28.564 26.5 27.299 26.323 26.604 25.46C26 24.711 26 23.689 26 22.275L26.75 22.25H26C26 19.38 26.181 18 30.25 18C34.319 18 34.5 19.38 34.5 22.25C34.5 23.688 34.5 24.711 33.896 25.46C33.201 26.323 31.936 26.5 30.25 26.5Z" fill="#474953"/>
<path fill-rule="evenodd" clip-rule="evenodd" d="M41.25 19.5C38.5 19.5 38.5 19.708 38.5 22.25V22.275C38.5 23.382 38.5 24.182 38.771 24.52C39.036 24.848 39.823 25 41.25 25C42.677 25 43.464 24.847 43.729 24.519C44 24.182 44 23.382 44 22.274C44 19.708 44 19.5 41.25 19.5ZM41.25 26.5C39.564 26.5 38.299 26.323 37.604 25.46C37 24.711 37 23.689 37 22.275L37.75 22.25H37C37 19.38 37.181 18 41.25 18C45.319 18 45.5 19.38 45.5 22.25C45.5 23.688 45.5 24.711 44.896 25.46C44.201 26.323 42.936 26.5 41.25 26.5Z" fill="#474953"/>
<path fill-rule="evenodd" clip-rule="evenodd" d="M30.25 30.5C27.5 30.5 27.5 30.708 27.5 33.25V33.275C27.5 34.382 27.5 35.182 27.771 35.52C28.036 35.848 28.823 36 30.25 36C31.677 36 32.464 35.847 32.729 35.519C33 35.182 33 34.382 33 33.274C33 30.708 33 30.5 30.25 30.5ZM30.25 37.5C28.564 37.5 27.299 37.323 26.604 36.46C26 35.711 26 34.689 26 33.275L26.75 33.25H26C26 30.38 26.181 29 30.25 29C34.319 29 34.5 30.38 34.5 33.25C34.5 34.688 34.5 35.711 33.896 36.46C33.201 37.323 31.936 37.5 30.25 37.5Z" fill="#474953"/>
<path fill-rule="evenodd" clip-rule="evenodd" d="M41.25 30.5C38.5 30.5 38.5 30.708 38.5 33.25V33.275C38.5 34.382 38.5 35.182 38.771 35.52C39.036 35.848 39.823 36 41.25 36C42.677 36 43.464 35.847 43.729 35.519C44 35.182 44 34.382 44 33.274C44 30.708 44 30.5 41.25 30.5ZM41.25 37.5C39.564 37.5 38.299 37.323 37.604 36.46C37 35.711 37 34.689 37 33.275L37.75 33.25H37C37 30.38 37.181 29 41.25 29C45.319 29 45.5 30.38 45.5 33.25C45.5 34.688 45.5 35.711 44.896 36.46C44.201 37.323 42.936 37.5 41.25 37.5Z" fill="#474953"/>
<path d="M77.172 30.8361C76.9772 31.0348 76.6723 31.0528 76.4575 30.8903L76.396 30.8361L71.9993 26.3511L67.6027 30.8361C67.4079 31.0348 67.1031 31.0528 66.8883 30.8903L66.8267 30.8361C66.6319 30.6374 66.6142 30.3264 66.7736 30.1073L66.8267 30.0445L71.6114 25.1639C71.8062 24.9652 72.111 24.9472 72.3258 25.1097L72.3873 25.1639L77.172 30.0445C77.3863 30.2631 77.3863 30.6175 77.172 30.8361Z" fill="#474953"/>
</svg>
