<svg width="104" height="56" viewBox="0 0 104 56" fill="none" xmlns="http://www.w3.org/2000/svg">
<rect x="0.5" y="0.5" width="103" height="55" rx="11.5" fill="#3488ED" stroke="#85B8F4"/>
<path fill-rule="evenodd" clip-rule="evenodd" d="M28.54 18H31.92C33.33 18 34.46 19.15 34.46 20.561V23.97C34.46 25.39 33.33 26.53 31.92 26.53H28.54C27.14 26.53 26 25.39 26 23.97V20.561C26 19.15 27.14 18 28.54 18ZM28.54 29.4697H31.92C33.33 29.4697 34.46 30.6107 34.46 32.0307V35.4397C34.46 36.8497 33.33 37.9997 31.92 37.9997H28.54C27.14 37.9997 26 36.8497 26 35.4397V32.0307C26 30.6107 27.14 29.4697 28.54 29.4697ZM43.4601 18H40.0801C38.6701 18 37.5401 19.15 37.5401 20.561V23.97C37.5401 25.39 38.6701 26.53 40.0801 26.53H43.4601C44.8601 26.53 46.0001 25.39 46.0001 23.97V20.561C46.0001 19.15 44.8601 18 43.4601 18ZM40.0801 29.4697H43.4601C44.8601 29.4697 46.0001 30.6107 46.0001 32.0307V35.4397C46.0001 36.8497 44.8601 37.9997 43.4601 37.9997H40.0801C38.6701 37.9997 37.5401 36.8497 37.5401 35.4397V32.0307C37.5401 30.6107 38.6701 29.4697 40.0801 29.4697Z" fill="white"/>
<path d="M66.8267 25.1639C67.0215 24.9652 67.3264 24.9472 67.5412 25.1097L67.6027 25.1639L71.9993 29.6489L76.396 25.1639C76.5908 24.9652 76.8956 24.9472 77.1104 25.1097L77.172 25.1639C77.3668 25.3626 77.3845 25.6736 77.2251 25.8927L77.172 25.9555L72.3873 30.8361C72.1925 31.0348 71.8877 31.0528 71.6729 30.8903L71.6114 30.8361L66.8267 25.9555C66.6124 25.7369 66.6124 25.3825 66.8267 25.1639Z" fill="white"/>
</svg>
