<svg xmlns="http://www.w3.org/2000/svg" width="44" height="44" viewBox="0 0 44 44" fill="none">
<rect width="44" height="44" rx="10" fill="#FF6A77"/>
<path d="M26 16.3V16C26 13.79 24.21 12 22 12C19.79 12 18 13.79 18 16V21" stroke="white" stroke-width="1.5" stroke-linecap="round" stroke-linejoin="round"/>
<path d="M19.0391 24.19C19.7691 25 20.8291 25.5 21.9991 25.5C24.2091 25.5 25.9991 23.71 25.9991 21.5V21" stroke="white" stroke-width="1.5" stroke-linecap="round" stroke-linejoin="round"/>
<path d="M16.7812 26.9484C18.1513 28.2184 19.9812 28.9984 22.0012 28.9984C26.2212 28.9984 29.6512 25.5684 29.6512 21.3484V19.6484" stroke="white" stroke-width="1.5" stroke-linecap="round" stroke-linejoin="round"/>
<path d="M14.3516 19.6484V21.3484C14.3516 22.4084 14.5616 23.4084 14.9516 24.3284" stroke="white" stroke-width="1.5" stroke-linecap="round" stroke-linejoin="round"/>
<path d="M30.0697 12.8398L13.9297 28.9898" stroke="white" stroke-width="1.5" stroke-linecap="round" stroke-linejoin="round"/>
<path d="M21 13V16" stroke="white" stroke-width="1.5" stroke-linecap="round" stroke-linejoin="round"/>
<path d="M22 29V32" stroke="white" stroke-width="1.5" stroke-linecap="round" stroke-linejoin="round"/>
</svg>