<svg xmlns="http://www.w3.org/2000/svg" width="44" height="44" viewBox="0 0 44 44" fill="none">
<rect width="44" height="44" rx="10" fill="#E5F3FF"/>
<path d="M22 25.5C24.21 25.5 26 23.71 26 21.5V16C26 13.79 24.21 12 22 12C19.79 12 18 13.79 18 16V21.5C18 23.71 19.79 25.5 22 25.5Z" stroke="#3E8FFF" stroke-width="1.5" stroke-linecap="round" stroke-linejoin="round"/>
<path d="M14.3516 19.6484V21.3484C14.3516 25.5684 17.7816 28.9984 22.0016 28.9984C26.2216 28.9984 29.6516 25.5684 29.6516 21.3484V19.6484" stroke="#3E8FFF" stroke-width="1.5" stroke-linecap="round" stroke-linejoin="round"/>
<path d="M20.6094 16.4311C21.5094 16.1011 22.4894 16.1011 23.3894 16.4311" stroke="#3E8FFF" stroke-width="1.5" stroke-linecap="round" stroke-linejoin="round"/>
<path d="M21.1992 18.5503C21.7292 18.4103 22.2792 18.4103 22.8092 18.5503" stroke="#3E8FFF" stroke-width="1.5" stroke-linecap="round" stroke-linejoin="round"/>
<path d="M22 29V32" stroke="#3E8FFF" stroke-width="1.5" stroke-linecap="round" stroke-linejoin="round"/>
</svg>