<svg xmlns="http://www.w3.org/2000/svg" width="44" height="44" viewBox="0 0 44 44" fill="none">
<rect x="0.5" y="0.5" width="43" height="43" rx="9.5" fill="#EEEEEE"/>
<path d="M19.1586 21.62C19.1286 21.62 19.1086 21.62 19.0786 21.62C19.0286 21.61 18.9586 21.61 18.8986 21.62C15.9986 21.53 13.8086 19.25 13.8086 16.44C13.8086 13.58 16.1386 11.25 18.9986 11.25C21.8586 11.25 24.1886 13.58 24.1886 16.44C24.1786 19.25 21.9786 21.53 19.1886 21.62C19.1786 21.62 19.1686 21.62 19.1586 21.62ZM18.9986 12.75C16.9686 12.75 15.3086 14.41 15.3086 16.44C15.3086 18.44 16.8686 20.05 18.8586 20.12C18.9186 20.11 19.0486 20.11 19.1786 20.12C21.1386 20.03 22.6786 18.42 22.6886 16.44C22.6886 14.41 21.0286 12.75 18.9986 12.75Z" fill="#515151"/>
<path d="M26.5384 21.75C26.5084 21.75 26.4784 21.75 26.4484 21.74C26.0384 21.78 25.6184 21.49 25.5784 21.08C25.5384 20.67 25.7884 20.3 26.1984 20.25C26.3184 20.24 26.4484 20.24 26.5584 20.24C28.0184 20.16 29.1584 18.96 29.1584 17.49C29.1584 15.97 27.9284 14.74 26.4084 14.74C25.9984 14.75 25.6584 14.41 25.6584 14C25.6584 13.59 25.9984 13.25 26.4084 13.25C28.7484 13.25 30.6584 15.16 30.6584 17.5C30.6584 19.8 28.8584 21.66 26.5684 21.75C26.5584 21.75 26.5484 21.75 26.5384 21.75Z" fill="#515151"/>
<path d="M19.1716 32.55C17.2116 32.55 15.2416 32.05 13.7516 31.05C12.3616 30.13 11.6016 28.87 11.6016 27.5C11.6016 26.13 12.3616 24.86 13.7516 23.93C16.7516 21.94 21.6116 21.94 24.5916 23.93C25.9716 24.85 26.7416 26.11 26.7416 27.48C26.7416 28.85 25.9816 30.12 24.5916 31.05C23.0916 32.05 21.1316 32.55 19.1716 32.55ZM14.5816 25.19C13.6216 25.83 13.1016 26.65 13.1016 27.51C13.1016 28.36 13.6316 29.18 14.5816 29.81C17.0716 31.48 21.2716 31.48 23.7616 29.81C24.7216 29.17 25.2416 28.35 25.2416 27.49C25.2416 26.64 24.7116 25.82 23.7616 25.19C21.2716 23.53 17.0716 23.53 14.5816 25.19Z" fill="#515151"/>
<path d="M28.3382 30.75C27.9882 30.75 27.6782 30.51 27.6082 30.15C27.5282 29.74 27.7882 29.35 28.1882 29.26C28.8182 29.13 29.3982 28.88 29.8482 28.53C30.4182 28.1 30.7282 27.56 30.7282 26.99C30.7282 26.42 30.4182 25.88 29.8582 25.46C29.4182 25.12 28.8682 24.88 28.2182 24.73C27.8182 24.64 27.5582 24.24 27.6482 23.83C27.7382 23.43 28.1382 23.17 28.5482 23.26C29.4082 23.45 30.1582 23.79 30.7682 24.26C31.6982 24.96 32.2282 25.95 32.2282 26.99C32.2282 28.03 31.6882 29.02 30.7582 29.73C30.1382 30.21 29.3582 30.56 28.4982 30.73C28.4382 30.75 28.3882 30.75 28.3382 30.75Z" fill="#515151"/>
<rect x="0.5" y="0.5" width="43" height="43" rx="9.5" stroke="#EEEEEE"/>
</svg>