<svg width="32" height="32" viewBox="0 0 32 32" fill="none" xmlns="http://www.w3.org/2000/svg">
<path fill-rule="evenodd" clip-rule="evenodd" d="M15.9307 14.5416C14.0427 13.7705 12.7112 11.9115 12.7173 9.74854C12.7173 9.7477 12.7173 9.74686 12.7173 9.74602C12.7173 9.74468 12.7173 9.74335 12.7173 9.74202C12.7194 6.88918 15.0413 4.57002 17.8946 4.57002C20.7479 4.57002 23.0693 6.89135 23.0693 9.74602C23.0693 11.9188 21.7232 13.7838 19.8212 14.5499C19.361 14.7353 18.8683 14.8563 18.3542 14.9018C18.2027 14.9152 18.0495 14.922 17.8946 14.922V15.874L17.8559 14.922C17.8546 14.922 17.8533 14.922 17.8519 14.922C17.1727 14.9189 16.5242 14.784 15.9307 14.5416ZM16.0223 16.5788C13.0155 15.7619 10.8039 13.0052 10.8133 9.74602C10.8133 9.74468 10.8133 9.74335 10.8133 9.74202C10.8133 9.74127 10.8133 9.74052 10.8133 9.73977C10.8145 5.8408 13.99 2.66602 17.8946 2.66602C21.7986 2.66602 24.9733 5.84202 24.9733 9.74602C24.9733 13.0013 22.766 15.7495 19.769 16.573C19.1718 16.737 18.5433 16.8247 17.8946 16.8247H17.8519C17.8509 16.8247 17.8498 16.8247 17.8488 16.8247C17.217 16.8225 16.6048 16.737 16.0223 16.5788ZM9.84059 27.3396C9.89364 27.3353 9.94685 27.3332 10.0001 27.3332H23.6667C24.9554 27.3332 26.0001 26.2885 26.0001 24.9999C26.0001 23.7112 24.9554 22.6665 23.6667 22.6665H15.3334C12.0479 22.6665 9.58526 21.454 7.80608 19.6202C8.08128 22.3121 8.45712 24.204 8.88024 25.4965C9.24961 26.6248 9.59647 27.1081 9.779 27.2859C9.80563 27.3119 9.82623 27.3289 9.84059 27.3396ZM5.54253 16.317C5.49791 15.5398 5.45998 14.7197 5.42918 13.8546C5.41207 13.3737 5.39715 12.879 5.38452 12.37C5.38356 12.3317 5.38262 12.2933 5.3817 12.2548C5.37182 11.8439 6.05058 11.7679 6.15608 12.1651C6.16233 12.1886 6.16861 12.2121 6.17495 12.2357C6.30188 12.7079 6.44549 13.185 6.60938 13.6595C6.86003 14.3851 7.15812 15.1045 7.51657 15.7904C8.92635 18.4878 11.2699 20.6665 15.3334 20.6665H23.6667C26.06 20.6665 28.0001 22.6066 28.0001 24.9999C28.0001 27.3931 26.06 29.3332 23.6667 29.3332H10.0001C8.00091 29.515 6.15039 26.9024 5.54253 16.317Z" fill="#474953"/>
</svg>
