<svg width="36" height="36" viewBox="0 0 36 36" fill="none" xmlns="http://www.w3.org/2000/svg">
<path d="M26.4352 2.52295C20.273 2.52295 18.0089 8.82014 18.0089 8.82014C18.0089 8.82014 15.7758 2.52295 9.57142 2.52295C4.90829 2.52295 -0.40733 6.21857 1.55579 14.6195C3.51892 23.0204 18.0258 33.4858 18.0258 33.4858C18.0258 33.4858 32.4792 23.0204 34.4452 14.6195C36.4083 6.21857 31.4752 2.52295 26.4352 2.52295Z" fill="#F44336"/>
<path d="M8.62133 3.15014C13.4588 3.15014 15.8607 8.35045 16.637 10.457C16.7466 10.758 17.1657 10.7664 17.2923 10.4739L18.001 8.81733C17.0026 5.62795 14.2576 2.52295 9.57195 2.52295C7.63133 2.52295 5.58102 3.1642 3.98633 4.51701C5.39539 3.5917 7.04633 3.15014 8.62133 3.15014Z" fill="#CC3333"/>
<path d="M26.4367 2.52295C24.9489 2.52295 23.5933 2.84639 22.5358 3.49889C23.2783 3.21201 24.198 3.15014 25.1092 3.15014C29.6683 3.15014 33.7492 6.6067 31.907 14.597C30.3264 21.4567 21.0902 29.7789 18.2692 32.9542C18.0892 33.1567 18.0273 33.483 18.0273 33.483C18.0273 33.483 32.4808 23.0176 34.4467 14.6167C36.4098 6.21857 31.4852 2.52295 26.4367 2.52295Z" fill="#CC3333"/>
<path d="M4.79236 6.98084C5.84705 5.66459 7.73142 4.57615 9.32892 5.83052C10.1924 6.50834 9.81549 7.89771 9.04205 8.48271C7.91705 9.33771 6.9383 9.8524 6.25205 11.1911C5.84142 11.9955 5.59392 12.8758 5.46736 13.773C5.41674 14.1274 4.95267 14.2146 4.7783 13.9024C3.59142 11.7986 3.25392 8.90177 4.79236 6.98084Z" fill="#FF8A80"/>
<path d="M21.702 9.74837C21.207 9.74837 20.8583 9.27024 21.0383 8.80899C21.373 7.95962 21.8061 7.13837 22.3264 6.40712C23.097 5.32712 24.5623 4.69712 25.4905 5.35243C26.4411 6.02181 26.3173 7.36056 25.6508 8.00743C24.2192 9.39399 22.4136 9.74837 21.702 9.74837Z" fill="#FF8A80"/>
</svg>
