<svg width="24" height="24" viewBox="0 0 24 24" fill="none" xmlns="http://www.w3.org/2000/svg">
<path fill-rule="evenodd" clip-rule="evenodd" d="M2.25 8.5C2.25 6.42893 3.92893 4.75 6 4.75H13.5C13.9142 4.75 14.25 5.08579 14.25 5.5C14.25 5.91421 13.9142 6.25 13.5 6.25H6C4.75736 6.25 3.75 7.25736 3.75 8.5V14.5C3.75 15.7426 4.75736 16.75 6 16.75H18C19.2426 16.75 20.25 15.7426 20.25 14.5V12.5C20.25 12.0858 20.5858 11.75 21 11.75C21.4142 11.75 21.75 12.0858 21.75 12.5V14.5C21.75 16.5711 20.0711 18.25 18 18.25H6C3.92893 18.25 2.25 16.5711 2.25 14.5V8.5ZM16.25 5.5C16.25 5.08579 16.5858 4.75 17 4.75H21C21.4142 4.75 21.75 5.08579 21.75 5.5V9.5C21.75 9.91421 21.4142 10.25 21 10.25C20.5858 10.25 20.25 9.91421 20.25 9.5V7.31066L16.5303 11.0303C16.2374 11.3232 15.7626 11.3232 15.4697 11.0303C15.1768 10.7374 15.1768 10.2626 15.4697 9.96967L19.1893 6.25H17C16.5858 6.25 16.25 5.91421 16.25 5.5ZM7.25 20.5C7.25 20.0858 7.58579 19.75 8 19.75H16C16.4142 19.75 16.75 20.0858 16.75 20.5C16.75 20.9142 16.4142 21.25 16 21.25H8C7.58579 21.25 7.25 20.9142 7.25 20.5Z" fill="#474953"/>
</svg>
