<svg xmlns="http://www.w3.org/2000/svg" width="20" height="20" viewBox="0 0 20 20" fill="none">
<path fill-rule="evenodd" clip-rule="evenodd" d="M10 1.5C5.313 1.5 1.5 5.313 1.5 10C1.5 14.687 5.313 18.5 10 18.5C14.687 18.5 18.5 14.687 18.5 10C18.5 5.313 14.687 1.5 10 1.5ZM10 20C4.486 20 0 15.514 0 10C0 4.486 4.486 0 10 0C15.514 0 20 4.486 20 10C20 15.514 15.514 20 10 20Z" fill="#D1D1D4"/>
<path fill-rule="evenodd" clip-rule="evenodd" d="M13.4302 13.6922C13.2992 13.6922 13.1672 13.6582 13.0462 13.5872L9.27616 11.3382C9.05016 11.2022 8.91016 10.9572 8.91016 10.6932V5.84521C8.91016 5.43121 9.24616 5.09521 9.66016 5.09521C10.0752 5.09521 10.4102 5.43121 10.4102 5.84521V10.2672L13.8152 12.2972C14.1702 12.5102 14.2872 12.9702 14.0752 13.3262C13.9342 13.5612 13.6852 13.6922 13.4302 13.6922Z" fill="#D1D1D4"/>
</svg>