<svg width="40" height="40" viewBox="0 0 40 40" fill="none" xmlns="http://www.w3.org/2000/svg">
<circle cx="20" cy="20" r="19.5" fill="#D6E7FB" stroke="#F3F3F4"/>
<mask id="mask0" style="mask-type:alpha" maskUnits="userSpaceOnUse" x="12" y="15" width="12" height="12">
<path fill-rule="evenodd" clip-rule="evenodd" d="M12.8572 15H23.9288V26.0724H12.8572V15Z" fill="white"/>
</mask>
<g mask="url(#mask0)">
<path fill-rule="evenodd" clip-rule="evenodd" d="M16.3195 16.0723C16.0059 16.0723 15.8038 16.0723 15.7688 16.0737C15.2417 16.0958 14.7552 16.3194 14.4045 16.7023C14.0774 17.0601 13.9088 17.5173 13.9309 17.9916C13.9309 20.058 13.9317 23.1594 13.9367 23.3294C14.0181 24.3187 14.9452 25.0751 16.0067 24.9937C17.9709 24.9966 20.8809 25.003 21.0174 24.998C21.5424 24.9766 22.0295 24.7537 22.3802 24.3716C22.7081 24.0151 22.8767 23.558 22.8559 23.0858C22.8552 23.078 22.8552 23.0701 22.8552 23.0623C22.8559 21.0194 22.8559 17.9201 22.8509 17.7537C22.7702 16.7594 21.8388 15.9937 20.7717 16.0773C19.2959 16.0751 17.2824 16.0723 16.3195 16.0723ZM15.8187 26.0724C14.3087 26.0731 12.9915 24.916 12.8673 23.3981C12.8651 23.3688 12.858 23.2795 12.8601 18.016C12.8258 17.2795 13.093 16.5481 13.6144 15.9788C14.1587 15.3845 14.9094 15.0381 15.7287 15.0031C15.828 14.996 19.2623 15.0045 20.733 15.0074C22.3401 14.8945 23.7908 16.0874 23.9201 17.6881C23.9258 17.766 23.928 19.5695 23.9265 23.0517C23.9565 23.806 23.688 24.5324 23.1694 25.0967C22.6244 25.6902 21.873 26.0352 21.0544 26.0688C20.9544 26.076 17.5187 26.0667 16.0458 26.0638C15.9701 26.0695 15.8944 26.0724 15.8187 26.0724Z" fill="#3488ED"/>
</g>
<path fill-rule="evenodd" clip-rule="evenodd" d="M26.299 24.5354C25.9769 24.5354 25.659 24.4246 25.3969 24.2096L23.0533 22.2839C22.8247 22.0961 22.7919 21.7582 22.9797 21.5296C23.1669 21.3018 23.5047 21.2675 23.7333 21.4561L26.0762 23.3818C26.234 23.5104 26.3926 23.4575 26.454 23.4275C26.5154 23.3989 26.6576 23.3096 26.6576 23.1068L26.6662 17.8575C26.6669 17.6546 26.524 17.5654 26.4626 17.5361C26.4019 17.5075 26.2412 17.4539 26.0847 17.5825L23.7326 19.5075C23.5026 19.6954 23.1662 19.6618 22.979 19.4318C22.7912 19.2032 22.8254 18.8661 23.054 18.6789L25.4062 16.7532C25.8376 16.3996 26.4183 16.3304 26.9219 16.5682C27.4254 16.8075 27.7383 17.3018 27.7376 17.8589L27.729 23.1082C27.7283 23.6654 27.4147 24.1596 26.9119 24.3968C26.7147 24.4904 26.5062 24.5354 26.299 24.5354Z" fill="#3488ED"/>
</svg>
