<svg width="36" height="36" viewBox="0 0 36 36" fill="none" xmlns="http://www.w3.org/2000/svg">
<path d="M31.3881 23.6812C30.733 22.731 31.0987 21.3575 30.9357 19.841C30.7679 17.3668 29.7028 14.9697 27.6366 13.0524L20.5992 6.52159C20.5992 6.52159 19.2126 5.23368 17.9213 6.61849C16.6318 8.00236 18.0193 9.29027 18.0193 9.29027L20.9923 12.0505L23.5693 14.4419C23.5693 14.4419 22.9236 15.1343 20.0713 12.487L10.438 3.54406C10.438 3.54406 9.0496 2.25709 7.75919 3.6419C6.46972 5.02577 7.85627 6.31368 7.85627 6.31368L16.9655 14.7702C16.9457 14.7514 16.2765 15.4212 16.2642 15.41L6.51779 6.3626C6.51779 6.3626 5.13029 5.07469 3.83988 6.4595C2.54947 7.84431 3.93697 9.13128 3.93697 9.13128L13.6843 18.1805C13.6956 18.1918 13.0679 18.8993 13.0867 18.9171L4.67879 11.1107C4.67879 11.1107 3.2913 9.82274 2.00089 11.2076C0.710476 12.5924 2.09797 13.8803 2.09797 13.8803L11.0375 22.1778C11.1195 22.254 10.5662 23.0321 10.669 23.1271L4.22729 17.1476C4.22729 17.1476 2.83979 15.8596 1.54938 17.2454C0.258973 18.6302 1.64647 19.9181 1.64647 19.9181L12.1536 29.6673C13.9077 31.2958 15.709 32.1199 17.8808 32.4219C18.3228 32.483 18.8884 32.483 19.1203 32.5122C19.8527 32.6044 20.4955 32.864 21.3561 33.3908C22.4636 34.0682 24.1254 34.3504 25.0803 33.3316L28.336 29.8554L31.3419 26.6455C32.2958 25.6276 32.1252 24.749 31.3881 23.6812Z" fill="#EF9645"/>
<path d="M2.81359 34.1269C2.62626 34.1273 2.44302 34.072 2.28714 33.9681C2.13126 33.8641 2.00977 33.7161 1.93808 33.5429C1.86639 33.3697 1.84775 33.1791 1.88451 32.9953C1.92127 32.8115 2.01177 32.6427 2.14454 32.5105L5.50494 29.1498C5.5928 29.0619 5.6971 28.9921 5.8119 28.9445C5.9267 28.897 6.04973 28.8725 6.17399 28.8725C6.29824 28.8725 6.42128 28.897 6.53607 28.9445C6.65087 28.9921 6.75518 29.0619 6.84304 29.1498C6.9309 29.2377 7.00059 29.3421 7.04814 29.4569C7.09569 29.5718 7.12017 29.6949 7.12017 29.8193C7.12017 29.9436 7.09569 30.0667 7.04814 30.1816C7.00059 30.2965 6.9309 30.4008 6.84304 30.4888L3.48264 33.8504C3.39484 33.9383 3.29052 34.008 3.1757 34.0555C3.06088 34.1029 2.93782 34.1272 2.81359 34.1269ZM9.19749 35C9.0463 35.0002 8.89727 34.9641 8.76289 34.8948C8.62852 34.8255 8.51272 34.7249 8.42521 34.6015C8.3377 34.4782 8.28104 34.3356 8.25998 34.1858C8.23892 34.036 8.25407 33.8833 8.30416 33.7406L9.22304 31.1147C9.26124 30.9938 9.3233 30.8819 9.40554 30.7855C9.48778 30.6891 9.58852 30.6102 9.7018 30.5534C9.81508 30.4967 9.93859 30.4633 10.065 30.4552C10.1914 30.4472 10.3182 30.4646 10.4377 30.5064C10.5573 30.5483 10.6673 30.6137 10.7611 30.6989C10.8549 30.784 10.9307 30.8872 10.984 31.0022C11.0372 31.1172 11.0668 31.2417 11.0711 31.3684C11.0754 31.4951 11.0542 31.6213 11.0088 31.7397L10.0899 34.3655C10.0252 34.5508 9.90453 34.7113 9.74466 34.825C9.5848 34.9387 9.3936 34.9998 9.19749 35ZM1.94203 27.7398C1.71945 27.7386 1.50441 27.6589 1.33464 27.5149C1.16487 27.3708 1.05121 27.1716 1.01361 26.952C0.976015 26.7325 1.01687 26.5067 1.12902 26.3143C1.24116 26.1219 1.41743 25.9752 1.6269 25.8999L3.98798 25.0656C4.10517 25.0242 4.22936 25.0063 4.35347 25.0129C4.47757 25.0195 4.59916 25.0506 4.71129 25.1042C4.82342 25.1578 4.92389 25.233 5.00697 25.3255C5.09005 25.418 5.15411 25.526 5.19549 25.6433C5.23687 25.7605 5.25477 25.8848 5.24815 26.009C5.24154 26.1332 5.21055 26.2548 5.15694 26.367C5.10334 26.4792 5.02818 26.5798 4.93575 26.6629C4.84331 26.746 4.73542 26.8101 4.61823 26.8516L2.25716 27.6858C2.15593 27.7215 2.04937 27.7398 1.94203 27.7398ZM29.8207 7.12768C29.6334 7.12783 29.4502 7.07234 29.2944 6.96824C29.1386 6.86414 29.0172 6.71611 28.9456 6.54291C28.8739 6.36971 28.8553 6.17913 28.892 5.9953C28.9286 5.81148 29.019 5.64269 29.1517 5.51031L32.513 2.14866C32.6906 1.9711 32.9314 1.8714 33.1824 1.87149C33.4334 1.87158 33.6741 1.97145 33.8516 2.14913C34.029 2.32682 34.1287 2.56776 34.1286 2.81896C34.1285 3.07015 34.0287 3.31102 33.8511 3.48858L30.4898 6.85023C30.4021 6.93846 30.2979 7.00842 30.183 7.05604C30.0682 7.10367 29.945 7.12802 29.8207 7.12768ZM25.8802 5.52072C25.729 5.52078 25.58 5.48457 25.4456 5.41512C25.3112 5.34568 25.1955 5.24503 25.108 5.1216C25.0205 4.99816 24.9638 4.85555 24.9428 4.7057C24.9217 4.55585 24.9368 4.40314 24.9869 4.26034L25.9048 1.63447C25.9876 1.39739 26.1612 1.20294 26.3873 1.0939C26.6134 0.984865 26.8735 0.970169 27.1104 1.05305C27.3474 1.13592 27.5417 1.30959 27.6507 1.53583C27.7596 1.76208 27.7743 2.02237 27.6915 2.25945L26.7735 4.88532C26.7089 5.0709 26.5882 5.23176 26.4282 5.34561C26.2681 5.45946 26.0766 5.52066 25.8802 5.52072ZM31.6935 10.9884C31.4709 10.9871 31.2559 10.9075 31.0861 10.7635C30.9163 10.6194 30.8027 10.4201 30.7651 10.2006C30.7275 9.98108 30.7683 9.75531 30.8805 9.56292C30.9926 9.37052 31.1689 9.22379 31.3784 9.14846L33.7385 8.3142C33.9752 8.23057 34.2353 8.24445 34.4618 8.35277C34.6882 8.4611 34.8624 8.65501 34.946 8.89184C35.0296 9.12867 35.0157 9.38902 34.9075 9.61562C34.7992 9.84222 34.6054 10.0165 34.3687 10.1001L32.0086 10.9344C31.9074 10.9701 31.8008 10.9884 31.6935 10.9884Z" fill="#FA743E"/>
<path d="M34.4362 23.7825C33.8082 22.7952 34.2234 21.4108 34.1113 19.8639C34.0258 17.3439 33.0349 14.8709 31.0189 12.8513L24.1522 5.97356C24.1522 5.97356 22.7994 4.61792 21.4513 5.98122C20.1051 7.34355 21.4589 8.70015 21.4589 8.70015L24.3603 11.6076L26.874 14.1256C26.874 14.1256 26.1995 14.8068 23.4169 12.0189C20.6324 9.23016 14.0174 2.60025 14.0174 2.60025C14.0174 2.60025 12.6636 1.2446 11.3165 2.6079C9.96936 3.97024 11.3231 5.32588 11.3231 5.32588L20.2115 14.2327C20.1925 14.2136 19.4952 14.8709 19.4829 14.8584L9.97316 5.3297C9.97316 5.3297 8.61939 3.97311 7.27226 5.3364C5.92608 6.6997 7.27891 8.05534 7.27891 8.05534L16.7896 17.586C16.801 17.5974 16.1435 18.2949 16.1625 18.314L7.95912 10.0931C7.95912 10.0931 6.60534 8.73746 5.25822 10.1008C3.91109 11.4641 5.26487 12.8206 5.26487 12.8206L13.987 21.5601C14.0668 21.6395 13.4835 22.4125 13.5832 22.513L7.29791 16.215C7.29791 16.215 5.94413 14.8594 4.597 16.2227C3.24988 17.586 4.60365 18.9426 4.60365 18.9426L14.8544 29.2098C16.5663 30.9252 18.3523 31.8235 20.5298 32.2053C20.9734 32.2828 21.5434 32.3019 21.7753 32.3392C22.5096 32.4578 23.148 32.7439 23.9983 33.3093C25.0908 34.0354 26.7553 34.3789 27.7518 33.3763L31.15 29.9551L34.287 26.7961C35.2836 25.7916 35.142 24.8923 34.4362 23.7825Z" fill="#FFDB5E"/>
</svg>
