<svg width="24" height="24" viewBox="0 0 24 24" fill="none" xmlns="http://www.w3.org/2000/svg">
<path fill-rule="evenodd" clip-rule="evenodd" d="M1.74975 20.4998C1.55775 20.4998 1.36575 20.4268 1.21975 20.2798C0.92675 19.9868 0.92675 19.5127 1.21975 19.2197L2.82576 17.6136C2.30804 17.1081 2 16.4064 2 15.6537V8.75C2 6.12665 4.12665 4 6.75 4H13.6537C14.4062 4 15.1078 4.30788 15.6132 4.82536L17.2188 3.21975C17.5117 2.92675 17.9858 2.92675 18.2787 3.21975C18.5717 3.51275 18.5717 3.98675 18.2787 4.27975L2.27975 20.2798C2.13375 20.4268 1.94175 20.4998 1.74975 20.4998ZM14.5524 5.88625L3.88659 16.5527C3.64453 16.3233 3.5 16.0004 3.5 15.6537V8.75C3.5 6.95507 4.95507 5.5 6.75 5.5H13.6537C14.0003 5.5 14.323 5.64439 14.5524 5.88625ZM20.8184 17.3493C20.3674 17.3493 19.9224 17.1943 19.5554 16.8933L17.4801 15.188C17.259 17.6061 15.2257 19.5 12.75 19.5H7C6.58579 19.5 6.25 19.1642 6.25 18.75C6.25 18.3358 6.58579 18 7 18H12.75C14.5449 18 16 16.5449 16 14.75V8.5C16 8.08579 16.3358 7.75 16.75 7.75C17.0572 7.75 17.3213 7.9347 17.4372 8.19911L19.5684 6.45431C20.1724 5.95931 20.9854 5.86231 21.6904 6.19531C22.3954 6.53031 22.8334 7.22231 22.8324 8.00231L22.8204 15.3513C22.8194 16.1313 22.3804 16.8233 21.6764 17.1553C21.4004 17.2863 21.1084 17.3493 20.8184 17.3493ZM20.5064 15.7343L17.5 13.2632V10.0855L20.5184 7.61531C20.7374 7.43531 20.9624 7.51031 21.0474 7.55031C21.1334 7.59131 21.3334 7.71631 21.3324 8.00031L21.3204 15.3493C21.3204 15.6333 21.1214 15.7583 21.0354 15.7983C20.9494 15.8403 20.7274 15.9143 20.5064 15.7343Z" fill="white"/>
</svg>
