<svg width="24" height="24" viewBox="0 0 24 24" fill="none" xmlns="http://www.w3.org/2000/svg">
<path fill-rule="evenodd" clip-rule="evenodd" d="M18 5.5H6C4.34315 5.5 3 6.84315 3 8.5V14.5C3 16.1569 4.34315 17.5 6 17.5H18C19.6569 17.5 21 16.1569 21 14.5V8.5C21 6.84315 19.6569 5.5 18 5.5ZM19.5303 6.96967C19.6022 7.04158 19.6565 7.12445 19.6931 7.21291C19.7298 7.30134 19.75 7.39831 19.75 7.5V12C19.75 12.4142 19.4142 12.75 19 12.75C18.5858 12.75 18.25 12.4142 18.25 12V9.31066L14.5303 13.0303C14.2374 13.3232 13.7626 13.3232 13.4697 13.0303C13.1768 12.7374 13.1768 12.2626 13.4697 11.9697L17.1893 8.25H14.5C14.0858 8.25 13.75 7.91421 13.75 7.5C13.75 7.08579 14.0858 6.75 14.5 6.75H18.9998H19C19.012 6.75 19.024 6.75029 19.036 6.75086C19.2158 6.75944 19.393 6.83238 19.5303 6.96967ZM8 19.75C7.58579 19.75 7.25 20.0858 7.25 20.5C7.25 20.9142 7.58579 21.25 8 21.25H16C16.4142 21.25 16.75 20.9142 16.75 20.5C16.75 20.0858 16.4142 19.75 16 19.75H8Z" fill="#336CCE"/>
</svg>
