<svg width="24" height="24" viewBox="0 0 24 24" fill="none" xmlns="http://www.w3.org/2000/svg">
<path fill-rule="evenodd" clip-rule="evenodd" d="M11.75 2.5C9.92399 2.5 8.43799 3.994 8.43799 5.831V10.519C8.43799 11.4771 8.8431 12.3425 9.49021 12.9509L12.1904 10.2505C12.1146 10.1333 12.0706 9.99363 12.0706 9.84375C12.0706 9.42975 12.4066 9.09375 12.8206 9.09375H13.3471L15.061 7.37972V7.25586H13.8186C13.4046 7.25586 13.0686 6.91986 13.0686 6.50586C13.0686 6.09186 13.4046 5.75586 13.8186 5.75586H15.0602C15.0203 3.95343 13.551 2.5 11.75 2.5ZM16.561 5.87963V5.831C16.561 3.167 14.403 1 11.75 1C9.09699 1 6.93799 3.167 6.93799 5.831V10.519C6.93799 11.891 7.51109 13.1314 8.42958 14.0115L6.68289 15.7583C5.33663 14.4343 4.5 12.5888 4.5 10.5508C4.5 10.1368 4.164 9.80078 3.75 9.80078C3.336 9.80078 3 10.1368 3 10.5508C3 13.0027 4.0048 15.2232 5.62258 16.8187L3.22146 19.22C2.92846 19.513 2.92846 19.987 3.22146 20.28C3.36746 20.427 3.55946 20.5 3.75146 20.5C3.94346 20.5 4.13546 20.427 4.28146 20.28L20.2805 4.27999C20.5735 3.98699 20.5735 3.51299 20.2805 3.21999C19.9875 2.92699 19.5135 2.92699 19.2205 3.21999L16.561 5.87963ZM11 21.7508C11 22.1648 11.336 22.5008 11.75 22.5008C12.164 22.5008 12.5 22.1648 12.5 21.7508V19.0678C14.3608 18.8787 15.9543 18.1776 17.2135 17.1356C19.2217 15.4736 20.325 12.9874 20.325 10.5C20.325 10.0444 19.9556 9.675 19.5 9.675C19.0444 9.675 18.675 10.0444 18.675 10.5C18.675 12.5126 17.7783 14.5264 16.1615 15.8644C14.5632 17.1871 12.2063 17.8932 9.18551 17.1961C8.74154 17.0937 8.29858 17.3705 8.19613 17.8145C8.09367 18.2585 8.37052 18.7014 8.81449 18.8039C9.57172 18.9786 10.3012 19.0777 11 19.1085V21.7508ZM16.825 11C16.825 10.5444 16.4556 10.175 16 10.175C15.5444 10.175 15.175 10.5444 15.175 11C15.175 11.5134 14.9942 12.3199 14.4589 12.9807C13.9519 13.6066 13.0698 14.175 11.5 14.175C11.0444 14.175 10.675 14.5444 10.675 15C10.675 15.4556 11.0444 15.825 11.5 15.825C13.5302 15.825 14.8981 15.06 15.7411 14.0193C16.5558 13.0135 16.825 11.82 16.825 11Z" fill="#474953"/>
</svg>
