<svg width="32" height="32" viewBox="0 0 32 32" fill="none" xmlns="http://www.w3.org/2000/svg">
<path d="M21.1333 5.13334L23.0667 7.06668L20.16 9.94668C19.64 10.4667 19.64 11.32 20.16 11.84C20.68 12.36 21.5333 12.36 22.0533 11.84L24.9333 8.93334L26.8667 10.8667C26.9607 10.9588 27.0798 11.0211 27.2092 11.0456C27.3385 11.0701 27.4722 11.0558 27.5934 11.0045C27.7146 10.9531 27.8178 10.8671 27.8902 10.7571C27.9626 10.6472 28.0008 10.5183 28 10.3867V4.66668C28 4.29334 27.7067 4.00001 27.3333 4.00001H21.6133C21.4817 3.99924 21.3528 4.03744 21.2429 4.10981C21.1329 4.18218 21.0469 4.28547 20.9956 4.40667C20.9442 4.52787 20.9299 4.66155 20.9544 4.79087C20.979 4.92019 21.0412 5.03935 21.1333 5.13334ZM5.13334 10.8667L7.06668 8.93334L9.94668 11.84C10.4667 12.36 11.32 12.36 11.84 11.84C12.36 11.32 12.36 10.4667 11.84 9.94668L8.93334 7.06668L10.8667 5.13334C10.9588 5.03935 11.0211 4.92019 11.0456 4.79087C11.0701 4.66155 11.0558 4.52787 11.0045 4.40667C10.9531 4.28547 10.8671 4.18218 10.7571 4.10981C10.6472 4.03744 10.5183 3.99924 10.3867 4.00001H4.66668C4.29334 4.00001 4.00001 4.29334 4.00001 4.66668V10.3867C4.00001 10.9867 4.72001 11.28 5.13334 10.8667ZM10.8667 26.8667L8.93334 24.9333L11.84 22.0533C12.36 21.5333 12.36 20.68 11.84 20.16C11.32 19.64 10.4667 19.64 9.94668 20.16L7.06668 23.0667L5.13334 21.1333C5.03935 21.0412 4.92019 20.979 4.79087 20.9544C4.66155 20.9299 4.52787 20.9442 4.40667 20.9956C4.28547 21.0469 4.18218 21.1329 4.10981 21.2429C4.03744 21.3528 3.99924 21.4817 4.00001 21.6133V27.3333C4.00001 27.7067 4.29334 28 4.66668 28H10.3867C10.5183 28.0008 10.6472 27.9626 10.7571 27.8902C10.8671 27.8178 10.9531 27.7146 11.0045 27.5934C11.0558 27.4722 11.0701 27.3385 11.0456 27.2092C11.0211 27.0798 10.9588 26.9607 10.8667 26.8667ZM26.8667 21.1333L24.9333 23.0667L22.0533 20.16C21.5333 19.64 20.68 19.64 20.16 20.16C19.64 20.68 19.64 21.5333 20.16 22.0533L23.0667 24.9333L21.1333 26.8667C21.0412 26.9607 20.979 27.0798 20.9544 27.2092C20.9299 27.3385 20.9442 27.4722 20.9956 27.5934C21.0469 27.7146 21.1329 27.8178 21.2429 27.8902C21.3528 27.9626 21.4817 28.0008 21.6133 28H27.3333C27.7067 28 28 27.7067 28 27.3333V21.6133C28.0008 21.4817 27.9626 21.3528 27.8902 21.2429C27.8178 21.1329 27.7146 21.0469 27.5934 20.9956C27.4722 20.9442 27.3385 20.9299 27.2092 20.9544C27.0798 20.979 26.9607 21.0412 26.8667 21.1333Z" fill="#D1D1D4"/>
</svg>
